<svg xmlns="http://www.w3.org/2000/svg" viewBox="0 0 75.84 67.05"><defs><style>.cls-1{fill:#363a3e;}.cls-2{fill:#5ac8fa;}</style></defs><title>Learning</title><g id="Layer_2" data-name="Layer 2"><g id="Layer_1-2" data-name="Layer 1"><path class="cls-1" d="M24.46,23.55a4.21,4.21,0,0,0-1.53,3.25v3.79a1.53,1.53,0,1,0,3.06,0V26.8a1.18,1.18,0,0,1,.42-.89A42.69,42.69,0,0,1,34,21.06a1.83,1.83,0,0,0,1-1.6V14.12a1.53,1.53,0,0,0-.69-1.26,1,1,0,0,1-.43-.81V6.51a3.46,3.46,0,0,1,3.45-3.45h1.19A3.45,3.45,0,0,1,42,6.51v5.54a1,1,0,0,1-.43.81,1.49,1.49,0,0,0-.68,1.26v5.34a1.79,1.79,0,0,0,1,1.6,43.45,43.45,0,0,1,7.58,4.85,1.18,1.18,0,0,1,.42.89v3.79a1.53,1.53,0,1,0,3.06,0V26.8a4.18,4.18,0,0,0-1.53-3.25,45.1,45.1,0,0,0-7.46-4.88V14.82A4,4,0,0,0,45,12V6.51A6.53,6.53,0,0,0,38.52,0H37.33a6.52,6.52,0,0,0-6.51,6.51v5.54a4,4,0,0,0,1.11,2.79v3.83a44.68,44.68,0,0,0-7.47,4.88Z"/><path class="cls-1" d="M74.31,67.05a1.52,1.52,0,0,0,1.53-1.53V61.73a4.18,4.18,0,0,0-1.53-3.25,45.31,45.31,0,0,0-7.46-4.87V49.75A4,4,0,0,0,68,47V41.43a6.52,6.52,0,0,0-6.51-6.51H60.26a6.52,6.52,0,0,0-6.51,6.51V47a4,4,0,0,0,1.11,2.78v3.86a45.31,45.31,0,0,0-7.46,4.87,4.19,4.19,0,0,0-1.53,3.25v3.79a1.53,1.53,0,0,0,3.06,0V61.73a1.14,1.14,0,0,1,.42-.88A40.35,40.35,0,0,1,56.93,56a1.77,1.77,0,0,0,1-1.59V49.06a1.53,1.53,0,0,0-.68-1.27,1,1,0,0,1-.43-.8V41.45A3.45,3.45,0,0,1,60.26,38h1.19a3.45,3.45,0,0,1,3.45,3.45V47a1,1,0,0,1-.43.8,1.49,1.49,0,0,0-.68,1.27V54.4a1.75,1.75,0,0,0,1,1.59,43.1,43.1,0,0,1,7.58,4.86,1.14,1.14,0,0,1,.42.88v3.79a1.53,1.53,0,0,0,1.53,1.53Z"/><path class="cls-1" d="M28.44,58.48A45.31,45.31,0,0,0,21,53.61V49.75A4,4,0,0,0,22.09,47V41.43a6.52,6.52,0,0,0-6.51-6.51H14.39a6.53,6.53,0,0,0-6.52,6.51V47A4,4,0,0,0,9,49.75v3.86a44.89,44.89,0,0,0-7.46,4.87A4.19,4.19,0,0,0,0,61.73v3.79a1.53,1.53,0,0,0,3.06,0V61.73a1.14,1.14,0,0,1,.42-.88A40.35,40.35,0,0,1,11.06,56a1.77,1.77,0,0,0,1-1.59V49.06a1.53,1.53,0,0,0-.68-1.27,1,1,0,0,1-.43-.8V41.45A3.44,3.44,0,0,1,14.39,38h1.19A3.45,3.45,0,0,1,19,41.45V47a1,1,0,0,1-.43.8,1.49,1.49,0,0,0-.68,1.27V54.4a1.75,1.75,0,0,0,1,1.59,41.86,41.86,0,0,1,7.58,4.86,1.14,1.14,0,0,1,.41.88v3.79a1.54,1.54,0,0,0,3.07,0V61.73a4.18,4.18,0,0,0-1.53-3.25Z"/><path class="cls-2" d="M46.63,49.34a1.53,1.53,0,0,0,2.09-.58,1.52,1.52,0,0,0-.56-2.08l-8.59-5V31.81a1.53,1.53,0,0,0-3.06,0v9.92l-8.59,5a1.53,1.53,0,0,0-.55,2.09,1.52,1.52,0,0,0,1.33.77,1.49,1.49,0,0,0,.76-.2l8.58-5Z"/></g></g></svg>