<svg xmlns="http://www.w3.org/2000/svg" viewBox="0 0 198.88 167.05"><defs><style>.cls-1{fill:#363a3e;}.cls-2{fill:#5ac8fa;}</style></defs><title>Kelas</title><g id="Layer_2" data-name="Layer 2"><g id="Layer_1-2" data-name="Layer 1"><path class="cls-1" d="M178.27,51.31,165.19,76.94a9.56,9.56,0,0,0-10-.32C138.09,85.26,135.38,86.2,131.87,90l0,0c-11.25,12.81-10.76,11.47-16.14,29a20.26,20.26,0,0,0-2.25-.22,5.34,5.34,0,0,0-5.31,4.73c0,.18-4,35.15-4,35.33-.19,4.7,2.69,8.17,8,8.17h10.8a2.91,2.91,0,1,0,0-5.82h-10.8c-1.76,0-2.23-.52-2.2-2l2.39-21,36.9,4.21-1.88,16.45a2.47,2.47,0,0,1-2.45,2.35h-8.36a2.91,2.91,0,1,0,0,5.82H145a8.32,8.32,0,0,0,8.15-7.51l3.48-30.45a5.36,5.36,0,0,0-2.5-5.15c3.28-3.66,1.85-2.61,19.38-11.45l.12-.07a21.49,21.49,0,0,0,10.18-13c.06-.18,14.56-41.81,14.6-42,3.66-14.31-14.7-20.77-20.13-6.14Zm-28.38,85.33L113,132.43l.89-7.74,36.9,4.21Zm42.9-80.74L178.24,97.68s0,.06,0,.08,0,.09,0,.13a15.63,15.63,0,0,1-7.37,9.43c-19.36,9.77-16.67,7.86-23.35,15.34l-25.87-3c4.51-14.68,3.56-13.19,14.6-25.76a19.82,19.82,0,0,1,4.91-3.69c18-9.08,17.58-9.06,19-9.06,2.95,0,4.72,3.8,4.11,5.9-.49,1.67-1.12,1.64-16.2,9.25a2.92,2.92,0,0,0,1.31,5.52c.95,0,.13.28,15.4-7.43,5.1-2.57,6.62-7.47,4.52-12.59,8-15.69,14.33-28.07,14.47-28.45,1.13-3.07,3-5.16,6.19-4.29,3.86,1.27,3.24,5.38,2.9,6.79Z"/><path class="cls-1" d="M93.45,158.71c0-.05-4-35.15-4-35.15a5.35,5.35,0,0,0-5.92-4.71l-1.64.19-3.07-10c-1.85-6-6.91-12-7-12-10.18-11.59-6-8.57-29.47-20.41a9.6,9.6,0,0,0-9.87.24L20.63,51.36C15.21,36.64-3.17,43.13.48,57.45c0,.13,13.26,41.83,13.3,42a21.47,21.47,0,0,0,10.18,13l.13.07c17,8.6,16,7.72,19.37,11.46A5.35,5.35,0,0,0,41,129.09c1.42,12.44.7,6.12,3.47,30.45a8.32,8.32,0,0,0,8.15,7.51H85.45c5.8,0,8.39-4.18,8-8.34ZM26.78,107.32a15.55,15.55,0,0,1-7.37-9.39c0-.16-13.26-41.84-13.31-42-.34-1.38-1-5.55,2.89-6.83,3.15-.87,5.06,1.22,6.19,4.29,0,.12.07.19.12.31L28.38,81.79c-2.11,5.07-.69,10,4.49,12.65L47,101.55a2.91,2.91,0,1,0,2.63-5.2c-15.32-7.73-15.73-7.62-16.2-9.25-.63-2.17,1.22-5.9,4.11-5.9a5.07,5.07,0,0,1,2.25.62C62.68,93.39,58,90,67.45,100.85c5.47,6.57,6,10.7,8.55,18.86l-25.87,3C43.32,115.05,46,117,26.78,107.32Zm20,21.58,36.9-4.21.88,7.74-36.9,4.21Zm38.64,32.33H52.68a2.48,2.48,0,0,1-2.45-2.35l-1.88-16.45,36.9-4.21,2.4,21c0,1.51-.46,2-2.2,2Z"/><path class="cls-2" d="M94.49,43.53a2.91,2.91,0,0,0,2.91-2.92V38.75a13.63,13.63,0,0,0-5.85-11.2C103,18.44,96.49,0,82,0s-21,18.45-9.61,27.55a13.66,13.66,0,0,0-5.85,11.2V62.16a7.59,7.59,0,0,0,7.58,7.57H89.83a7.58,7.58,0,0,0,7.57-7.57v-8a2.91,2.91,0,0,0-5.82,0v8a1.76,1.76,0,0,1-1.75,1.75H74.07a1.75,1.75,0,0,1-1.75-1.75V38.75a7.85,7.85,0,0,1,7.84-7.84h3.58a7.85,7.85,0,0,1,7.84,7.84v1.86a2.91,2.91,0,0,0,2.91,2.92ZM82,25.08a9.63,9.63,0,1,1,9.63-9.63A9.64,9.64,0,0,1,82,25.08Z"/><path class="cls-2" d="M127.11,27.55C138.55,18.44,132,0,117.5,0s-21,18.45-9.6,27.55a13.63,13.63,0,0,0-5.85,11.2V62.16a7.58,7.58,0,0,0,7.57,7.57h15.77A7.58,7.58,0,0,0,133,62.16V38.75a13.66,13.66,0,0,0-5.85-11.2Zm-19.24-12.1a9.63,9.63,0,1,1,9.63,9.63,9.64,9.64,0,0,1-9.63-9.63Zm19.26,46.71a1.75,1.75,0,0,1-1.74,1.75H109.62a1.76,1.76,0,0,1-1.75-1.75V38.75a7.85,7.85,0,0,1,7.84-7.84h3.58a7.84,7.84,0,0,1,7.84,7.84Z"/><path class="cls-1" d="M148.14,26.34a10.29,10.29,0,0,0-7.46,17.35,9.19,9.19,0,0,0-2.82,6.63V62.16a7.58,7.58,0,0,0,7.57,7.57h5.43a7.58,7.58,0,0,0,7.57-7.57V50.32a9.23,9.23,0,0,0-2.82-6.63,10.29,10.29,0,0,0-7.47-17.35Zm0,5.83a4.46,4.46,0,1,1-4.46,4.46,4.46,4.46,0,0,1,4.46-4.46Zm4.46,30a1.75,1.75,0,0,1-1.74,1.75h-5.43a1.76,1.76,0,0,1-1.75-1.75V50.32h0a3.41,3.41,0,0,1,3.41-3.41h2.1a3.41,3.41,0,0,1,3.41,3.41Z"/><path class="cls-1" d="M51.45,26.34A10.3,10.3,0,0,0,44,43.69a9.22,9.22,0,0,0-2.81,6.63V62.16a7.58,7.58,0,0,0,7.57,7.57h5.42a7.59,7.59,0,0,0,7.58-7.57V50.32a9.23,9.23,0,0,0-2.82-6.63,10.3,10.3,0,0,0-7.47-17.35Zm4.46,35.82a1.75,1.75,0,0,1-1.75,1.75H48.74A1.75,1.75,0,0,1,47,62.16V50.32a3.41,3.41,0,0,1,3.41-3.41h2.1a3.41,3.41,0,0,1,3.41,3.41ZM51.45,41.09a4.46,4.46,0,1,1,4.46-4.46,4.47,4.47,0,0,1-4.46,4.46Z"/></g></g></svg>