<svg xmlns="http://www.w3.org/2000/svg" viewBox="0 0 200.03 194.25"><defs><style>.cls-1{fill:#5ac8fa;}.cls-2{fill:#363a3e;}</style></defs><title>Jadwal</title><g id="Layer_2" data-name="Layer 2"><g id="Layer_1-2" data-name="Layer 1"><path class="cls-1" d="M185,98.23a86.89,86.89,0,0,0-8.89-58.94l-5.84,3.2a80.4,80.4,0,0,1,8.2,54.41Z"/><path class="cls-1" d="M71.21,6.22,68.81,0A86.92,86.92,0,0,0,14.44,67L21,68.09A80.2,80.2,0,0,1,71.21,6.22Z"/><path class="cls-1" d="M13.34,80.9H20c0-2.15.09-4.3.26-6.4L13.61,74c-.18,2.27-.27,4.61-.27,6.94Z"/><rect class="cls-2" x="73.35" y="170.91" width="6.67" height="20"/><rect class="cls-2" x="120.02" y="170.91" width="6.67" height="20"/><rect class="cls-2" x="180.03" y="177.58" width="6.67" height="16.67"/><path class="cls-2" d="M187.4,155.15l-14-3.51v-2.17A15.31,15.31,0,0,0,180,136.81V117.57a20,20,0,0,0-9.41-16.94,73.34,73.34,0,1,0-141.2,0A20,20,0,0,0,20,117.57v19.22a15.34,15.34,0,0,0,6.67,12.69v2.16l-14,3.51A16.64,16.64,0,0,0,0,171.32v19.6H6.67v-19.6a10,10,0,0,1,7.57-9.7l16.57-4.14a3.33,3.33,0,0,0,2.53-3.23v-6.67a3.33,3.33,0,0,0-1.84-3,8.66,8.66,0,0,1-4.83-7.79V117.57a13.34,13.34,0,0,1,26.67,0v19.22a8.65,8.65,0,0,1-4.82,7.8,3.35,3.35,0,0,0-1.85,3v6.67a3.35,3.35,0,0,0,2.53,3.23l11.43,2.86a16.65,16.65,0,0,0-.62,4.33v16.25h6.67V164.66A10,10,0,0,1,74.25,155l16.57-4.14a3.33,3.33,0,0,0,2.53-3.23v-6.67a3.34,3.34,0,0,0-1.84-3,8.66,8.66,0,0,1-4.83-7.79V110.91a13.34,13.34,0,1,1,26.67,0v19.21a8.67,8.67,0,0,1-4.82,7.81,3.33,3.33,0,0,0-1.85,3v6.67a3.34,3.34,0,0,0,2.53,3.23L125.78,155a10,10,0,0,1,7.58,9.71v16.26H140V164.66a16.31,16.31,0,0,0-.62-4.34l11.43-2.85a3.34,3.34,0,0,0,2.53-3.22v-6.67a3.33,3.33,0,0,0-1.84-3,8.66,8.66,0,0,1-4.83-7.79V117.57a13.34,13.34,0,0,1,26.67,0v19.22a8.65,8.65,0,0,1-4.82,7.8,3.35,3.35,0,0,0-1.85,3v6.67a3.34,3.34,0,0,0,2.53,3.23l16.57,4.14a10,10,0,0,1,7.58,9.7v19.6H200v-19.6a16.64,16.64,0,0,0-12.63-16.17Zm-123.72-.91-10.34-2.6v-2.17a15.24,15.24,0,0,0,5.82-7.66A72.5,72.5,0,0,0,72,148.72a16.55,16.55,0,0,0-8.32,5.52Zm83-2.6-10.33,2.61a16.69,16.69,0,0,0-8.34-5.54,73.33,73.33,0,0,0,12.86-6.91,15.25,15.25,0,0,0,5.81,7.67ZM140,117.57v16.64a66.78,66.78,0,0,1-24,11.42l-2.64-.66V142.8A15.29,15.29,0,0,0,120,130.13V110.9a20,20,0,0,0-40,0v19.22a15.34,15.34,0,0,0,6.67,12.69V145l-2.6.67A65.79,65.79,0,0,1,60,134.16V117.57a20,20,0,0,0-19.9-20,19.38,19.38,0,0,0-4.49.5,66.68,66.68,0,1,1,128.79,0,20,20,0,0,0-23.89,15,20.53,20.53,0,0,0-.5,4.49Z"/><rect class="cls-2" x="13.34" y="177.58" width="6.67" height="16.67"/><path class="cls-1" d="M103.35,47.56H96.68V80.9A3.34,3.34,0,0,0,100,84.23h23.33V77.57h-20Z"/><rect class="cls-2" x="96.68" y="20.89" width="6.67" height="6.67"/><path class="cls-2" d="M67.13,30.6l5.77-3.34L76.24,33l-5.78,3.33Z"/><path class="cls-2" d="M46.38,53.78,49.71,48l5.78,3.33-3.33,5.77Z"/><rect class="cls-2" x="40.01" y="77.57" width="6.67" height="6.67"/><rect class="cls-2" x="153.36" y="77.57" width="6.67" height="6.67"/><path class="cls-2" d="M144.55,51.34,150.32,48l3.34,5.78-5.78,3.33Z"/><path class="cls-2" d="M123.8,33l3.33-5.77,5.78,3.33-3.34,5.78Z"/></g></g></svg>